# xmcd CD database file generated by LOLA_Freedb v0.9beta0
# 
# Track frame offsets:
#      150
#      11925
#      23913
#      35738
#      48100
#      59888
#      72213
#      84713
#      94938
#      106275
#      116075
#      130550
#      143200
#      155500
# 
# Disc length: 2217 seconds
# 
# Revision: 3 
# Processed by: cddbd v1.5.2PL0 Copyright (c) Steve Scherf et al.
# Submitted via: LOLA_Freedb v0.9beta0
# 
DISCID=c608a70e
DTITLE=Val Doonican - Walk Tall
DYEAR=1994
DGENRE=Country
TTITLE0=Val Doonican - Walk Tall
TTITLE1=Val Doonican - The Special Years
TTITLE2=What Would It Be
TTITLE3=Elusive Butterfly
TTITLE4=If The Wolrd Stopped Loving
TTITLE5=O'Rafferty's Motor Car
TTITLE6=Morning
TTITLE7=If I Knew What I Know Now
TTITLE8=Song Sung Blue
TTITLE9=King Of The Road
TTITLE10=I'm Just A Country Boy
TTITLE11=Delaney's Donkey
TTITLE12=Now
TTITLE13=Two Streets
EXTD=YEAR: 1994
EXTT0=
EXTT1=
EXTT2=
EXTT3=
EXTT4=
EXTT5=
EXTT6=
EXTT7=
EXTT8=
EXTT9=
EXTT10=
EXTT11=
EXTT12=
EXTT13=
PLAYORDER=
